<svg width="15" height="16" viewBox="0 0 15 16" fill="none" xmlns="http://www.w3.org/2000/svg">
<g opacity="0.7">
<path d="M7.03096 1.58944C6.18643 1.73258 5.50222 2.07899 4.8953 2.66873C4.73784 2.82332 4.53458 3.04948 4.44584 3.17545C3.54405 4.42364 3.4553 6.00105 4.19391 7.51548C4.41721 7.96781 4.5947 8.21115 5.29323 9.01846L5.87438 9.69123L4.86381 9.70554L3.85323 9.71985L3.78452 9.79142C3.73013 9.84582 3.55264 10.364 3.02588 11.9872C2.64512 13.1552 2.33594 14.1372 2.33594 14.1715C2.33594 14.2689 2.4161 14.3948 2.50771 14.4435C2.58214 14.4807 3.1862 14.4865 7.68082 14.4865C12.2499 14.4865 12.7795 14.4807 12.8368 14.4406C12.9141 14.3863 12.9856 14.2546 12.9856 14.1658C12.9856 14.1315 12.6764 13.1495 12.2986 11.9815C11.6888 10.1092 11.6 9.85441 11.5227 9.7857L11.4397 9.70554H10.6868C9.96249 9.70554 9.931 9.7084 9.86802 9.76566C9.74778 9.88017 9.71915 10.0462 9.79645 10.1951C9.87088 10.3411 9.97394 10.364 10.5494 10.364H11.0647L11.4254 11.4719C11.6258 12.0845 11.8777 12.8546 11.9865 13.1867C12.0953 13.5188 12.184 13.7994 12.184 13.8108C12.184 13.8194 10.1486 13.828 7.65792 13.828H3.13466L3.1547 13.7622C3.18906 13.6505 3.64711 12.242 3.95629 11.2858L4.25689 10.364H5.35621H6.45554L6.85633 10.8278L7.25713 11.2944L6.9279 11.3087C6.59868 11.323 6.59581 11.323 6.51279 11.4175C6.45554 11.4834 6.42977 11.5406 6.42977 11.6122C6.42977 11.7324 6.49562 11.867 6.57005 11.9099C6.64735 11.95 8.67422 11.95 8.75152 11.9099C8.82595 11.867 8.8918 11.7324 8.8918 11.6122C8.8918 11.5406 8.86603 11.4834 8.80877 11.4175C8.72575 11.323 8.72289 11.323 8.39367 11.3087L8.06444 11.2944L9.3384 9.82005C10.0398 9.00987 10.6896 8.23691 10.7841 8.10522C11.3796 7.25783 11.7031 6.10125 11.6115 5.15366C11.5943 4.96757 11.5571 4.71564 11.5256 4.59254C11.1506 3.02658 9.87661 1.84423 8.2906 1.58944C7.96424 1.53791 7.33156 1.53791 7.03096 1.58944ZM8.2219 2.24789C9.04925 2.3939 9.81362 2.86626 10.3375 3.56479C10.5322 3.82244 10.7698 4.32344 10.8557 4.65266C10.9473 5.00193 10.9788 5.59453 10.9273 5.95811C10.8328 6.58507 10.5322 7.32654 10.1658 7.81035C9.97394 8.06801 7.68941 10.7075 7.66078 10.7075C7.63216 10.7075 5.37912 8.10236 5.16154 7.81894C4.68918 7.19485 4.36854 6.25012 4.36854 5.47143C4.36854 4.56678 4.70922 3.7795 5.37625 3.1325C5.85434 2.66873 6.43836 2.36813 7.08822 2.24789C7.38023 2.19636 7.91558 2.19636 8.2219 2.24789Z" fill="#FBFDFF"/>
<path d="M7.23751 3.93706C6.77946 4.06588 6.41588 4.36648 6.21262 4.79304C6.08379 5.05642 6.04944 5.25682 6.06661 5.58318C6.10097 6.27884 6.56761 6.85713 7.23178 7.0289C7.46653 7.09189 7.87592 7.08902 8.10208 7.0289C8.6546 6.8829 9.11552 6.39622 9.23862 5.83511C9.29015 5.59177 9.25866 5.15376 9.17277 4.92187C9.02104 4.50962 8.66033 4.14891 8.24808 3.99145C7.99615 3.89412 7.48371 3.86835 7.23751 3.93706ZM7.97612 4.60123C8.32538 4.72147 8.57158 5.04783 8.60021 5.41714C8.63456 5.88664 8.33969 6.27885 7.86447 6.40195C7.45794 6.50501 7.03997 6.31034 6.82812 5.92099C6.73651 5.75209 6.73079 5.72346 6.73079 5.48298C6.73079 5.25968 6.74224 5.20529 6.80808 5.08219C7.04284 4.63559 7.5152 4.44091 7.97612 4.60123Z" fill="#FBFDFF"/>
</g>
</svg>
