<svg width="15" height="16" viewBox="0 0 15 16" fill="none" xmlns="http://www.w3.org/2000/svg">
<g opacity="0.7">
<path d="M9.25534 3.0369C8.98857 3.09453 8.73886 3.21618 8.50837 3.39758L8.38672 3.49362L8.51264 3.68143C8.58093 3.78388 8.65776 3.90766 8.68337 3.95888L8.73033 4.05065L8.84771 3.94394C9.45596 3.40399 10.2798 3.611 10.6789 4.40493C10.8219 4.69305 10.8987 5.08361 10.8773 5.42082C10.8026 6.54768 9.92549 7.24557 9.10595 6.8294C9.04832 6.80165 8.99924 6.78031 8.99497 6.78458C8.9907 6.78885 8.96936 6.85501 8.94588 6.93397C8.92027 7.0108 8.87332 7.14312 8.83704 7.22636L8.77301 7.37789L8.87759 7.43124C9.04406 7.51448 9.37486 7.59131 9.57761 7.59131C10.5828 7.59131 11.3917 6.72909 11.5069 5.53393C11.5603 4.96623 11.4109 4.33877 11.1078 3.87778C10.9819 3.6857 10.7066 3.40612 10.5316 3.29087C10.1517 3.04117 9.67365 2.94726 9.25534 3.0369Z" fill="#FBFDFF"/>
<path d="M5.98972 3.11145C5.75069 3.13706 5.58635 3.18615 5.34519 3.30353C4.47016 3.72824 3.93234 4.73985 3.97502 5.87312C3.99423 6.36185 4.0732 6.67558 4.28875 7.11096C4.43388 7.40121 4.54272 7.55488 4.76041 7.77897C5.18939 8.21648 5.70587 8.42563 6.28851 8.39576C7.40683 8.3424 8.30107 7.33078 8.40564 6.00117C8.53583 4.34289 7.38336 2.96419 5.98972 3.11145ZM6.53608 3.82854C6.9181 3.93952 7.28092 4.26606 7.49007 4.6865C7.66294 5.03224 7.73337 5.34383 7.73337 5.76641C7.73123 6.6457 7.29372 7.38414 6.61931 7.65092C6.49126 7.7 6.44644 7.70641 6.19887 7.70854C5.9449 7.70854 5.90862 7.70427 5.76776 7.64878C4.90981 7.31371 4.45949 6.21032 4.73053 5.11547C4.86499 4.57338 5.23848 4.09105 5.68239 3.88617C5.93423 3.77305 6.2693 3.74958 6.53608 3.82854Z" fill="#FBFDFF"/>
<path d="M11.534 7.33728C11.4998 7.38423 11.391 7.49948 11.2949 7.59552C11.1968 7.68943 11.1178 7.77053 11.1178 7.77266C11.1178 7.77693 11.1776 7.82175 11.2523 7.8751C11.4294 8.00315 11.7239 8.29341 11.8584 8.47695C11.9757 8.63275 12.1508 8.95288 12.2276 9.14709C12.3386 9.43308 12.4389 10.0264 12.4047 10.2057C12.3471 10.5045 11.8669 10.7819 11.1178 10.9484L10.8937 10.9996V11.3069C10.8916 11.4755 10.8852 11.6399 10.8745 11.6697L10.8574 11.7252L11.026 11.6975C11.4358 11.6249 11.9373 11.4712 12.2148 11.3325C12.441 11.2194 12.5691 11.1319 12.727 10.9825C13.0621 10.6709 13.1624 10.3529 13.1047 9.80016C13.0578 9.35624 12.9532 8.9977 12.7483 8.58366C12.5264 8.12907 12.1892 7.7065 11.8093 7.40344C11.709 7.32448 11.6215 7.25832 11.6129 7.25618C11.6044 7.25405 11.5702 7.29033 11.534 7.33728Z" fill="#FBFDFF"/>
<path d="M3.81099 8.16103C3.29451 8.54732 2.89968 9.02538 2.61157 9.60802C2.38961 10.0605 2.26796 10.4873 2.21674 10.9995C2.15911 11.563 2.25729 11.8916 2.58169 12.2224C3.15152 12.8051 4.37869 13.1594 5.95374 13.1978C7.05713 13.2234 7.97911 13.0996 8.81145 12.8093C9.50294 12.5682 9.97673 12.1733 10.1304 11.7102C10.1902 11.5309 10.1837 10.9526 10.1176 10.6218C9.92338 9.64004 9.38342 8.76928 8.59803 8.1781L8.38461 8.01804L8.14131 8.26774C8.00685 8.40433 7.90014 8.51958 7.90228 8.51958C8.86054 9.10648 9.48373 10.1715 9.49867 11.2535C9.5008 11.4434 9.49653 11.4776 9.44745 11.5736C9.23829 11.9877 8.39315 12.327 7.23427 12.4679C6.83517 12.517 5.95374 12.534 5.5333 12.502C4.70096 12.438 4.02868 12.2886 3.53141 12.0517C3.18353 11.8874 3.00426 11.7294 2.91036 11.5075C2.88048 11.437 2.87621 11.3794 2.88901 11.1703C2.94023 10.1693 3.46952 9.22387 4.29119 8.65403C4.39577 8.58147 4.48114 8.51531 4.48114 8.50677C4.48114 8.49823 4.42565 8.44274 4.35949 8.38512C4.29119 8.32536 4.18875 8.21865 4.12899 8.14822C4.07137 8.07779 4.01801 8.02017 4.01161 8.02017C4.00521 8.01804 3.91557 8.08206 3.81099 8.16103Z" fill="#FBFDFF"/>
</g>
</svg>
