<svg width="15" height="16" viewBox="0 0 15 16" fill="none" xmlns="http://www.w3.org/2000/svg">
<g opacity="0.7" clip-path="url(#clip0_2_11816)">
<path d="M6.34455 1.04836C5.65747 1.36899 5.23377 1.80414 4.92459 2.49122C4.62686 3.15539 4.61541 4.27762 4.90169 5.11356C5.11926 5.73193 5.11926 5.74338 4.87878 6.23579C4.63831 6.72819 4.63831 6.72819 4.03139 6.72819C3.45883 6.72819 3.42447 6.71674 3.53898 6.49917C3.60769 6.38465 3.88252 6.08692 4.15735 5.85789C4.5925 5.49145 4.64976 5.41129 4.53525 5.22807C4.35203 4.93034 4.29477 4.95324 3.74511 5.4342C1.4434 7.51833 1.30598 11.3889 3.45883 13.702C5.26813 15.6373 8.5661 16.0152 10.822 14.5265C12.5168 13.4272 13.3871 11.7782 13.3871 9.70552C13.3871 8.02219 12.7344 6.47626 11.5778 5.4342C11.0281 4.94179 10.9709 4.93034 10.7876 5.22807C10.6617 5.42274 10.696 5.49145 11.0396 5.74338C11.2457 5.9037 11.532 6.18998 11.6694 6.38465L11.9099 6.72819H11.303C10.6846 6.72819 10.6846 6.72819 10.4441 6.23579C10.2036 5.74338 10.2036 5.73193 10.4212 5.11356C10.8678 3.80811 10.593 2.3309 9.76848 1.55221C8.90964 0.750623 7.43242 0.533049 6.34455 1.04836ZM8.72642 1.52931C10.7075 2.53702 10.5357 4.90744 8.30272 7.25495L7.66145 7.93058L6.97437 7.19769C5.38264 5.5029 4.84443 3.89972 5.4628 2.66299C6.05827 1.4377 7.53548 0.933843 8.72642 1.52931ZM5.69183 6.59078C5.71473 6.67093 5.63457 6.72819 5.49715 6.72819C5.33684 6.72819 5.27958 6.67093 5.33684 6.55642C5.40554 6.36175 5.62312 6.38465 5.69183 6.59078ZM9.99751 6.55642C10.0433 6.67093 9.98606 6.72819 9.83719 6.72819C9.60816 6.72819 9.53946 6.60223 9.68832 6.46481C9.80284 6.33885 9.91735 6.3732 9.99751 6.55642ZM4.40928 7.49543C4.37493 7.67865 4.30622 8.19396 4.27187 8.64056L4.19171 9.4765H3.30996H2.42821L2.53127 8.82378C2.58853 8.45733 2.72594 7.94203 2.85191 7.67865L3.06948 7.18624H3.77946H4.47799L4.40928 7.49543ZM6.7797 7.85042C7.36371 8.44588 7.43242 8.5604 7.43242 8.99555V9.4765H6.05827C4.68411 9.4765 4.68411 9.4765 4.72992 9.21312C4.76427 9.0757 4.81008 8.68636 4.85588 8.35427C4.9704 7.32366 5.06201 7.18624 5.63457 7.18624C6.08117 7.18624 6.18423 7.2435 6.7797 7.85042ZM10.3639 7.75881C10.4327 8.04509 10.5128 8.54895 10.5472 8.86958L10.6044 9.4765H9.25317H7.89047V8.99555C7.89047 8.5604 7.95918 8.44588 8.55465 7.83897C9.17302 7.20915 9.23027 7.17479 9.72268 7.20915C10.2265 7.2435 10.238 7.25495 10.3639 7.75881ZM12.471 7.713C12.5969 7.99928 12.7458 8.51459 12.7916 8.85813L12.8947 9.4765H12.0129H11.1312L11.051 8.64056C11.0167 8.19396 10.948 7.67865 10.9136 7.49543L10.8449 7.18624H11.5434H12.2534L12.471 7.713ZM4.27187 10.759C4.30622 11.2171 4.37493 11.7324 4.40928 11.9042L4.47799 12.2248H3.77946C3.13819 12.2248 3.06948 12.2019 2.92062 11.9042C2.7603 11.595 2.58853 10.9881 2.46256 10.301L2.40531 9.93455H3.29851H4.19171L4.27187 10.759ZM7.43242 10.2208C7.43242 10.427 7.48968 10.5071 7.66145 10.5071C7.83322 10.5071 7.89047 10.427 7.89047 10.2208V9.93455H9.25317H10.6273L10.5701 10.3582C10.5357 10.5987 10.4556 11.114 10.3869 11.5034L10.2723 12.2248H9.08141C7.97063 12.2248 7.89047 12.2134 7.89047 11.9958C7.89047 11.8469 7.81031 11.7668 7.66145 11.7668C7.51258 11.7668 7.43242 11.8469 7.43242 11.9958C7.43242 12.2134 7.35226 12.2248 6.24149 12.2248H5.05055L4.93604 11.5034C4.86733 11.114 4.78717 10.5987 4.75282 10.3582L4.69556 9.93455H6.06972H7.43242V10.2208ZM12.8603 10.301C12.7344 10.9881 12.5626 11.595 12.4023 11.9042C12.2534 12.2019 12.1847 12.2248 11.5434 12.2248H10.8449L10.9136 11.9042C10.948 11.7324 11.0167 11.2171 11.051 10.759L11.1312 9.93455H12.0244H12.929L12.8603 10.301ZM4.86733 13.1638C4.98185 13.4272 5.19942 13.828 5.34829 14.0341C5.49715 14.2517 5.58876 14.4464 5.56586 14.4693C5.4399 14.6067 3.74511 13.3012 3.52753 12.9004C3.42447 12.7058 3.47028 12.6829 4.03139 12.6829C4.64976 12.6829 4.64976 12.6829 4.86733 13.1638ZM7.43242 13.7707C7.43242 15.0075 7.34081 15.0991 6.61938 14.5723C6.13843 14.2059 5.89795 13.9196 5.53151 13.2211L5.25668 12.6829H6.34455H7.43242V13.7707ZM9.79138 13.2211C9.42494 13.9196 9.18447 14.2059 8.70351 14.5723C7.98208 15.0991 7.89047 15.0075 7.89047 13.7707V12.6829H8.97834H10.0662L9.79138 13.2211ZM11.7954 12.9004C11.5778 13.3012 9.883 14.6067 9.75703 14.4693C9.73413 14.4464 9.82574 14.2517 9.97461 14.0341C10.1235 13.828 10.341 13.4272 10.4556 13.1638C10.6731 12.6829 10.6731 12.6829 11.2915 12.6829C11.8526 12.6829 11.8984 12.7058 11.7954 12.9004Z" fill="#FBFDFF"/>
<path d="M6.65332 1.87283C6.00059 2.20492 5.6685 2.75458 5.6227 3.59052C5.57689 4.20889 5.61125 4.39211 5.86318 4.80436C6.64186 6.14416 8.66874 6.15561 9.44743 4.82726C9.98564 3.92261 9.72226 2.60571 8.89777 2.0217C8.40536 1.66671 7.21443 1.58655 6.65332 1.87283ZM8.3023 2.36523C9.14969 2.75458 9.03518 2.83474 7.66103 2.83474C6.75638 2.83474 6.41284 2.80038 6.47009 2.70877C6.5617 2.54845 7.42055 2.14766 7.66103 2.14766C7.75264 2.14766 8.05037 2.25072 8.3023 2.36523ZM9.20695 3.52181C9.2413 3.64778 9.2413 3.8539 9.20695 3.97987C9.13824 4.19744 9.03518 4.20889 7.66103 4.20889C6.28687 4.20889 6.18381 4.19744 6.1151 3.97987C6.08075 3.8539 6.08075 3.64778 6.1151 3.52181C6.18381 3.30424 6.28687 3.29279 7.66103 3.29279C9.03518 3.29279 9.13824 3.30424 9.20695 3.52181ZM8.63439 4.89597C8.3481 5.2166 7.75264 5.35402 7.27168 5.22806C7.06556 5.1708 6.80218 5.02193 6.68767 4.89597C6.48155 4.66694 6.493 4.66694 7.66103 4.66694C8.82906 4.66694 8.84051 4.66694 8.63439 4.89597Z" fill="#FBFDFF"/>
<path d="M6.40234 11.0797C6.40234 11.2515 6.4825 11.3087 6.68863 11.3087C6.89475 11.3087 6.97491 11.2515 6.97491 11.0797C6.97491 10.9079 6.89475 10.8507 6.68863 10.8507C6.4825 10.8507 6.40234 10.9079 6.40234 11.0797Z" fill="#FBFDFF"/>
<path d="M7.37514 10.9651C7.32933 11.0453 7.34079 11.1484 7.40949 11.2171C7.56981 11.3774 7.9477 11.2858 7.9477 11.0796C7.9477 10.8735 7.48965 10.7819 7.37514 10.9651Z" fill="#FBFDFF"/>
<path d="M8.34766 11.0797C8.34766 11.2515 8.42782 11.3087 8.63394 11.3087C8.84006 11.3087 8.92022 11.2515 8.92022 11.0797C8.92022 10.9079 8.84006 10.8507 8.63394 10.8507C8.42782 10.8507 8.34766 10.9079 8.34766 11.0797Z" fill="#FBFDFF"/>
</g>
<defs>
<clipPath id="clip0_2_11816">
<rect width="14.6576" height="14.6576" fill="white" transform="translate(0.332031 0.77356)"/>
</clipPath>
</defs>
</svg>
