<svg width="15" height="16" viewBox="0 0 15 16" fill="none" xmlns="http://www.w3.org/2000/svg">
<g opacity="0.7">
<path d="M4.33972 3.17798C3.85877 3.30681 3.46942 3.62745 3.25185 4.06832C3.08008 4.41472 3.08008 4.409 3.08008 6.96836C3.08008 9.55635 3.08008 9.53345 3.26616 9.90275C3.45224 10.2721 3.74712 10.5412 4.15364 10.7072L4.35403 10.7902L8.33049 10.7988C12.7192 10.8074 12.4472 10.816 12.8394 10.6242C13.0999 10.4982 13.4005 10.1948 13.5351 9.92279C13.7355 9.52486 13.7326 9.58211 13.724 6.88247C13.7155 4.46625 13.7155 4.46339 13.6525 4.27444C13.5695 4.03397 13.3948 3.76486 13.1973 3.57305C13.0198 3.40415 12.6562 3.21234 12.4186 3.16367C12.3127 3.14077 11.0645 3.13218 8.38202 3.13504C5.0497 3.13504 4.47427 3.14077 4.33972 3.17798ZM12.1753 3.64749C12.4358 3.68184 12.6877 3.80494 12.8766 3.99389C13.0541 4.17138 13.1916 4.4548 13.1973 4.6552L13.2001 4.79834L10.8841 5.79746C9.61017 6.34713 8.5452 6.79659 8.5223 6.79659C8.49653 6.79659 7.37717 6.37575 6.03737 5.86045L3.59539 4.92144V4.78689C3.59539 4.49488 3.78433 4.10267 4.01908 3.91373C4.19085 3.77631 4.41702 3.67325 4.60882 3.65035C4.86075 3.61599 11.9233 3.61599 12.1753 3.64749ZM13.2087 7.38919L13.2001 9.41607L13.1314 9.56494C13.0942 9.64796 13.057 9.71667 13.0456 9.7138C13.037 9.7138 12.6104 9.21567 12.098 8.60875C11.5855 8.00184 10.9901 7.29472 10.7753 7.03993L10.386 6.57615L11.7773 5.9721C12.5446 5.64001 13.1801 5.36804 13.1944 5.36804C13.2059 5.36518 13.2116 6.27556 13.2087 7.38919ZM5.16135 6.07516C5.96866 6.38434 6.62998 6.64772 6.62998 6.66204C6.62998 6.67349 5.9887 7.3806 5.20715 8.23372L3.78433 9.78537L3.69558 9.60215L3.6097 9.41607L3.60111 7.44359C3.59252 5.56271 3.59539 5.47397 3.64405 5.49114C3.67268 5.50259 4.3569 5.76597 5.16135 6.07516ZM11.2821 8.44271C12.0464 9.34736 12.6705 10.1003 12.6705 10.1146C12.6705 10.149 12.4215 10.2549 12.2497 10.2892C12.1581 10.3093 10.844 10.3179 8.31904 10.3121L4.5258 10.3035L4.35403 10.232C4.25956 10.1919 4.18226 10.1518 4.18226 10.1404C4.18226 10.1289 4.85789 9.38458 5.68238 8.48565C6.82178 7.24319 7.19109 6.85385 7.2283 6.86816C7.25407 6.87961 7.52318 6.98267 7.82377 7.10005C8.55665 7.38347 8.51085 7.38347 9.26377 7.05711C9.58727 6.91683 9.85924 6.80231 9.87069 6.79945C9.88214 6.79659 10.5148 7.53806 11.2821 8.44271Z" fill="#FBFDFF"/>
<path d="M2.37327 4.36319C2.08412 4.42331 1.81502 4.63802 1.68905 4.91571L1.60603 5.0932L1.59744 8.0276C1.59172 10.0659 1.60031 11.0192 1.62035 11.1481C1.71768 11.7178 2.17573 12.2159 2.73971 12.3648C2.97732 12.4306 11.7633 12.4278 11.9752 12.3648C12.4332 12.2302 12.7796 11.8466 12.8712 11.3857C12.917 11.1624 12.8913 11.025 12.7939 10.9477C12.6222 10.8131 12.3846 10.9334 12.3846 11.1595C12.3846 11.4172 12.1756 11.7235 11.9208 11.838L11.769 11.9067H7.3603H2.95156L2.7941 11.8437C2.5708 11.7521 2.41335 11.629 2.29597 11.4515C2.1013 11.1567 2.10703 11.2769 2.10703 8.10203C2.10703 5.26497 2.10703 5.23921 2.16715 5.11897C2.19864 5.05026 2.26734 4.9701 2.31601 4.93861C2.39903 4.88708 2.44484 4.87277 2.64237 4.83269C2.74544 4.81265 2.82273 4.70959 2.82273 4.59221C2.82273 4.4004 2.64237 4.30593 2.37327 4.36319Z" fill="#FBFDFF"/>
</g>
</svg>
