<svg width="64" height="64" viewBox="0 0 64 64" fill="none" xmlns="http://www.w3.org/2000/svg">
<rect width="64" height="64" rx="8" fill="#0389FF" fill-opacity="0.1"/>
<path fill-rule="evenodd" clip-rule="evenodd" d="M31.9923 17.4917V19.1059L31.1238 19.1716C30.6425 19.2099 29.9233 19.3029 29.5305 19.3795C29.1322 19.4616 28.4739 19.6367 28.0645 19.768C27.6551 19.8994 26.9913 20.1675 26.5985 20.3536C26.2002 20.5451 25.6691 20.8296 25.4091 20.9883C25.1491 21.147 24.712 21.4479 24.441 21.6504C24.1644 21.8583 23.6941 22.2523 23.3954 22.5369C23.0911 22.8159 22.6486 23.2811 22.4107 23.5656C22.1673 23.8502 21.7966 24.3426 21.5809 24.66C21.3706 24.9774 21.0166 25.5902 20.7953 26.028C20.574 26.4658 20.2808 27.1662 20.1425 27.5875C19.9987 28.0089 19.8216 28.66 19.7442 29.0376C19.6667 29.4152 19.5782 30.0061 19.5506 30.3509C19.5174 30.6956 19.4897 31.2155 19.4897 31.5C19.4897 31.7845 19.5174 32.3044 19.5506 32.6491C19.5782 32.9939 19.6667 33.5794 19.7442 33.9515C19.8161 34.3181 19.9931 34.9692 20.137 35.4015C20.2808 35.8283 20.574 36.5342 20.7953 36.972C21.0166 37.4098 21.3706 38.0226 21.5809 38.34C21.7966 38.6574 22.1673 39.1498 22.4107 39.4344C22.6486 39.7189 23.0911 40.1841 23.3954 40.4631C23.6941 40.7422 24.1644 41.1417 24.441 41.3496C24.712 41.552 25.1491 41.8475 25.4091 42.0117C25.6691 42.1704 26.2002 42.4549 26.5985 42.6465C26.9913 42.8325 27.6551 43.1006 28.0645 43.232C28.4739 43.3633 29.1322 43.5384 29.5305 43.615C29.9233 43.6916 30.5208 43.7792 30.8582 43.812C31.1902 43.8393 31.7046 43.8667 31.9923 43.8667C32.28 43.8667 32.8055 43.8393 33.1541 43.8065C33.5026 43.7792 34.1001 43.6916 34.4818 43.615C34.8635 43.5384 35.5107 43.3688 35.9201 43.232C36.3295 43.1006 36.9878 42.8325 37.3861 42.6465C37.7789 42.4549 38.3155 42.1704 38.5755 42.0117C38.8356 41.853 39.2671 41.552 39.5437 41.3496C39.8147 41.1471 40.2905 40.7477 40.5892 40.4686C40.888 40.1841 41.3361 39.7189 41.574 39.4344C41.8174 39.1498 42.188 38.6574 42.4038 38.34C42.614 38.0226 42.9681 37.4098 43.1893 36.972C43.4106 36.5342 43.7038 35.8338 43.8421 35.4125C43.9804 34.9911 44.163 34.34 44.2349 33.9624C44.3124 33.5848 44.4064 32.9556 44.4451 32.567C44.4839 32.1402 44.4949 31.5219 44.4728 31.0349C44.4562 30.5862 44.3898 29.9186 44.3345 29.5574C44.2736 29.1963 44.163 28.6655 44.0855 28.381C44.0081 28.0964 43.8698 27.6368 43.7757 27.3686C43.6817 27.095 43.4272 26.5205 43.2115 26.0827C43.0012 25.645 42.6417 25.0157 42.4204 24.6874C42.1991 24.3536 41.8063 23.8392 41.5574 23.5383C41.148 23.0622 41.0927 23.0075 41.0761 23.1279C41.0705 23.2045 41.0982 23.6477 41.1369 24.1128C41.1812 24.5779 41.2033 24.9719 41.1922 24.9883C41.1756 25.0047 40.8105 25.043 40.3846 25.0759C39.953 25.1142 39.5935 25.1361 39.5824 25.1306C39.5713 25.1306 39.4717 24.0964 39.3611 22.8433C39.2505 21.5902 39.1785 20.5451 39.2007 20.5177C39.2283 20.4958 40.2794 20.3864 41.5352 20.2824C42.7966 20.1784 43.8366 20.1018 43.8477 20.1183C43.8643 20.1347 43.903 20.5013 43.9362 20.9391C43.9749 21.3768 43.997 21.738 43.986 21.738C43.9749 21.7434 43.6098 21.7763 43.1672 21.8091C42.7246 21.8474 42.354 21.8857 42.3374 21.8967C42.3208 21.9131 42.4204 22.0389 42.5587 22.1812C42.697 22.3289 42.9736 22.6518 43.1783 22.909C43.3774 23.1662 43.7094 23.6313 43.9196 23.9487C44.1243 24.266 44.4617 24.857 44.6664 25.2619C44.8711 25.6669 45.1256 26.2359 45.2307 26.5205C45.3413 26.805 45.5018 27.2975 45.5958 27.6149C45.6843 27.9323 45.8116 28.4357 45.8724 28.7366C45.9333 29.0376 46.0107 29.4808 46.0494 29.7216C46.0826 29.9624 46.1269 30.6409 46.138 31.2264C46.1601 32.0253 46.1435 32.474 46.0771 33.0048C46.0273 33.3933 45.9222 34.0116 45.8503 34.3728C45.7784 34.7339 45.6124 35.3468 45.4852 35.7408C45.3579 36.1293 45.1311 36.7367 44.9817 37.0814C44.8324 37.4262 44.5724 37.957 44.4009 38.2579C44.2294 38.5589 43.9528 39.013 43.7757 39.2702C43.6042 39.5274 43.2834 39.9542 43.0621 40.2278C42.8463 40.496 42.3872 40.9994 42.0442 41.3441C41.7067 41.6834 41.1756 42.1649 40.8714 42.4057C40.5671 42.6464 40.0416 43.024 39.7096 43.2429C39.3722 43.4563 38.8411 43.7682 38.5202 43.9378C38.1994 44.102 37.6406 44.3537 37.2755 44.5015C36.9104 44.6437 36.335 44.8407 36.0031 44.9337C35.6656 45.0322 35.1954 45.1526 34.952 45.2019C34.7086 45.2511 34.172 45.3387 33.7626 45.3989C33.2204 45.4809 32.7336 45.5083 31.9923 45.5083C31.2399 45.5083 30.7642 45.4809 30.1944 45.3934C29.7684 45.3332 29.182 45.2292 28.8943 45.169C28.6067 45.1088 28.059 44.9611 27.6773 44.8407C27.2955 44.7203 26.7091 44.5015 26.3772 44.3647C26.0398 44.2224 25.5087 43.9597 25.1878 43.7846C24.8669 43.6095 24.3967 43.3304 24.1367 43.1553C23.8767 42.9857 23.4397 42.6683 23.1686 42.4495C22.892 42.236 22.3885 41.7819 22.04 41.4426C21.697 41.1088 21.2102 40.5835 20.9668 40.2825C20.7234 39.9816 20.3804 39.5274 20.2089 39.2702C20.0374 39.013 19.7663 38.5808 19.6114 38.3126C19.4565 38.039 19.2131 37.563 19.0748 37.2456C18.931 36.9282 18.7097 36.3646 18.5769 35.987C18.4497 35.6095 18.2782 35.0185 18.1952 34.6738C18.1177 34.329 18.0016 33.6888 17.9407 33.251C17.8633 32.7093 17.8301 32.1621 17.8301 31.5274C17.8301 30.92 17.8633 30.3235 17.9352 29.8037C17.996 29.3659 18.1067 28.7148 18.1897 28.3536C18.2726 27.9925 18.4497 27.3905 18.5769 27.013C18.7097 26.6354 18.931 26.0718 19.0748 25.7544C19.2131 25.437 19.4565 24.9555 19.6114 24.6874C19.7663 24.4138 20.0374 23.987 20.2089 23.7298C20.3804 23.4726 20.7234 23.0184 20.9668 22.7175C21.2102 22.4165 21.697 21.8912 22.04 21.5574C22.3885 21.2181 22.892 20.764 23.1686 20.5505C23.4397 20.3317 23.8767 20.0143 24.1367 19.8447C24.3967 19.6696 24.8559 19.396 25.1601 19.2263C25.4644 19.0567 26.001 18.7995 26.3495 18.6518C26.6981 18.504 27.2955 18.2797 27.6773 18.1593C28.059 18.0389 28.6288 17.8857 28.9496 17.8145C29.2705 17.7489 29.8182 17.6504 30.1667 17.6011C30.5152 17.5464 31.0685 17.5026 31.9923 17.4917ZM31.1625 22.8543V24.7694H32.8221V23.8119C32.8221 23.0841 32.8387 22.8543 32.8941 22.8543C32.9272 22.8543 33.1817 22.8926 33.4583 22.9363C33.7294 22.9801 34.172 23.0786 34.443 23.1552C34.7086 23.2318 35.1567 23.3905 35.4333 23.5109C35.7154 23.6313 36.1469 23.8447 36.3904 23.987C36.6338 24.1238 37.0044 24.3645 37.2202 24.5232C37.4304 24.6764 37.7789 24.961 37.9891 25.158C38.1994 25.3495 38.5258 25.6942 38.7138 25.9186C38.9019 26.1429 39.2062 26.5478 39.3832 26.8214C39.5603 27.0896 39.8092 27.5328 39.9364 27.8064C40.0692 28.0745 40.2462 28.5178 40.3348 28.7914C40.4233 29.0595 40.5394 29.4808 40.5837 29.7216C40.6335 29.9624 40.6888 30.2743 40.7331 30.6792H38.7968V32.3208H40.7331L40.7054 32.578C40.6888 32.7257 40.6335 33.0376 40.5837 33.2784C40.5394 33.5192 40.4233 33.935 40.3348 34.2086C40.2462 34.4768 40.0692 34.92 39.9364 35.1936C39.8092 35.4617 39.5603 35.905 39.3832 36.1786C39.2062 36.4467 38.9019 36.8571 38.7138 37.0814C38.5202 37.3058 38.2326 37.6177 38.0666 37.7709C37.9062 37.9241 37.6517 38.1485 37.4968 38.2689C37.3474 38.3892 36.9934 38.6355 36.7223 38.8106C36.4457 38.9857 35.9976 39.2319 35.7265 39.3578C35.4499 39.4891 35.0018 39.6642 34.7307 39.7518C34.4541 39.8393 34.0337 39.9542 33.7903 39.998C33.5468 40.0473 33.2315 40.102 32.8221 40.1457V38.2306H31.1625V40.1457L30.9025 40.1184C30.7531 40.102 30.4378 40.0473 30.1944 39.998C29.951 39.9542 29.525 39.8393 29.2539 39.7518C28.9773 39.6642 28.5181 39.4836 28.2305 39.3468C27.9428 39.21 27.467 38.9419 27.1794 38.7559C26.8917 38.5643 26.4547 38.2415 26.2168 38.0336C25.9734 37.8256 25.6027 37.459 25.3925 37.2182C25.1767 36.9775 24.8503 36.5452 24.6567 36.2606C24.4686 35.9761 24.1976 35.5055 24.0592 35.221C23.9209 34.9364 23.7384 34.4768 23.6499 34.2086C23.5614 33.935 23.4452 33.5192 23.4009 33.2784C23.3511 33.0376 23.2958 32.7257 23.2516 32.3208H25.1878V30.6792H23.2516L23.2792 30.4165C23.2958 30.2743 23.3511 29.9624 23.4009 29.7216C23.4452 29.4808 23.5614 29.0595 23.6499 28.7914C23.7384 28.5178 23.9209 28.0636 24.0592 27.779C24.1976 27.4945 24.4686 27.0239 24.6567 26.7394C24.8503 26.4548 25.1767 26.0225 25.3925 25.7818C25.6027 25.541 25.9734 25.1744 26.2168 24.9664C26.4547 24.7585 26.8751 24.4411 27.1517 24.2606C27.4228 24.0855 27.8156 23.8556 28.0258 23.7517C28.2305 23.6477 28.579 23.4945 28.8003 23.4069C29.016 23.3194 29.3867 23.199 29.6135 23.1333C29.8403 23.0731 30.2276 22.9856 30.471 22.9418C30.7144 22.898 30.9689 22.8597 31.1625 22.8543ZM31.1348 31.1388L28.6343 33.2237C29.1599 33.853 29.3977 34.132 29.5084 34.2579L29.7075 34.4822L32.7945 31.9049L32.8221 26.5205H31.1625L31.1348 31.1388Z" fill="#016EE8"/>
</svg>
