<svg width="65" height="65" viewBox="0 0 65 65" fill="none" xmlns="http://www.w3.org/2000/svg">
<rect x="0.480469" y="0.960449" width="64" height="64" rx="14" fill="#F15642" fill-opacity="0.1"/>
<path d="M33.6623 21.7982V24.1618C35.589 24.4223 37.3766 25.309 38.7497 26.6853C40.1229 28.0617 41.0054 29.8513 41.2614 31.7786H43.625C43.3548 29.2271 42.2188 26.845 40.4061 25.0291C38.5934 23.2132 36.2134 22.0729 33.6623 21.7982ZM21.3182 31.7786H23.6818C23.9423 29.852 24.829 28.0643 26.2053 26.6912C27.5817 25.318 29.3714 24.4355 31.2986 24.1795V21.8159C28.7471 22.0861 26.365 23.2221 24.5491 25.0348C22.7332 26.8475 21.5929 29.2275 21.3182 31.7786ZM41.2614 34.1423C41.0018 36.0663 40.1177 37.852 38.7448 39.2248C37.372 40.5977 35.5864 41.4818 33.6623 41.7414V44.105C36.2139 43.8348 38.5959 42.6988 40.4118 40.8861C42.2278 39.0734 43.368 36.6934 43.6427 34.1423H41.2614ZM23.6996 34.1423H21.3359C21.6061 36.6938 22.7421 39.0759 24.5548 40.8918C26.3675 42.7077 28.7476 43.848 31.2986 44.1227V41.7591C29.372 41.4986 27.5844 40.6119 26.2112 39.2356C24.8381 37.8592 23.9555 36.0695 23.6996 34.1423ZM32.4805 27.6423C31.4286 27.6423 30.4004 27.9542 29.5258 28.5385C28.6513 29.1229 27.9696 29.9535 27.5671 30.9253C27.1646 31.897 27.0593 32.9663 27.2645 33.998C27.4697 35.0296 27.9762 35.9772 28.7199 36.721C29.4637 37.4647 30.4113 37.9712 31.4429 38.1764C32.4746 38.3816 33.5439 38.2763 34.5156 37.8738C35.4874 37.4713 36.318 36.7896 36.9024 35.9151C37.4867 35.0405 37.7986 34.0123 37.7986 32.9604C37.7986 31.55 37.2383 30.1973 36.241 29.1999C35.2436 28.2026 33.8909 27.6423 32.4805 27.6423ZM45.4805 33.5514H39.5714V32.3695H45.4805V33.5514ZM33.0714 25.8695H31.8896V19.9604H33.0714V25.8695ZM25.3896 33.5514H19.4805V32.3695H25.3896V33.5514ZM33.0714 45.9604H31.8896V40.0514H33.0714V45.9604Z" fill="#F15642"/>
</svg>
