<svg width="65" height="65" viewBox="0 0 65 65" fill="none" xmlns="http://www.w3.org/2000/svg">
<rect x="0.818359" y="0.518555" width="64" height="64" rx="14" fill="#8048F8" fill-opacity="0.1"/>
<path d="M44.2157 32.4453C45.3639 31.6116 46.2331 30.5235 46.7645 29.3095C47.1306 30.2992 47.3223 31.4083 47.3223 32.6468C47.3223 35.6035 46.1869 37.6748 45.0225 39.0091C44.4447 39.6713 43.8648 40.147 43.423 40.4605C43.336 40.5222 43.2542 40.5776 43.1786 40.6273V42.6142C43.1786 44.1921 41.7871 45.4713 40.0708 45.4713H39.0349C37.8906 45.4713 36.963 44.6184 36.963 43.5666H32.8193C32.8193 44.6184 31.8918 45.4713 30.7475 45.4713H29.7116C27.9952 45.4713 26.6038 44.1921 26.6038 42.6142V42.2079C26.4249 42.1555 26.2246 42.0908 26.0084 42.0104C25.1798 41.703 24.1001 41.1637 23.1039 40.2353C21.8771 39.0921 21.1899 37.6614 20.8456 36.7637C20.7328 36.4698 20.507 36.2849 20.2872 36.2277C19.1213 35.9248 18.3164 34.9466 18.3164 33.8328V32.3205C18.3164 31.2235 19.1073 30.2595 20.2544 29.9579C20.4686 29.9016 20.7009 29.7093 20.8152 29.3915C21.0942 28.6159 21.6324 27.4698 22.6186 26.5507C23.4253 25.7988 24.296 25.2431 24.9569 24.8772C25.1572 24.7663 25.3402 24.6718 25.4988 24.5936V21.0173C25.4988 20.3439 25.979 19.8687 26.495 19.6762C27.0067 19.4852 27.6928 19.5172 28.2059 19.9629C28.7296 20.4177 29.4181 20.9618 30.1544 21.4048C30.9095 21.8592 31.618 22.1477 32.1959 22.2015L32.2069 22.2026C31.1129 23.6955 30.6091 25.5235 30.8434 27.3542C31.094 29.3127 32.7427 30.4904 34.1268 31.0174L39.0765 32.9018C40.4607 33.4288 42.5324 33.6675 44.2157 32.4453ZM26.0858 31.1847C26.944 31.1847 27.6397 30.5451 27.6397 29.7561C27.6397 28.9671 26.944 28.3275 26.0858 28.3275C25.2277 28.3275 24.5319 28.9671 24.5319 29.7561C24.5319 30.5451 25.2277 31.1847 26.0858 31.1847Z" fill="#8048F8"/>
<path d="M33.297 24.3643C33.8945 22.9764 35.0791 21.8041 36.6975 21.1876C39.8688 19.9797 43.5048 21.364 44.8188 24.2796C45.9078 26.696 45.06 29.4058 42.9322 30.9506C42.0697 31.5768 40.8852 31.5287 39.8698 31.1421L34.9201 29.2577C33.9048 28.8711 33.03 28.1352 32.9016 27.1317C32.8389 26.6416 32.8468 26.1518 32.9202 25.6736L33.297 24.3643ZM33.297 24.3643L33.0152 25.1999C33.0588 25.024 33.1115 24.8502 33.1729 24.6792C33.2109 24.5731 33.2523 24.4681 33.297 24.3643Z" fill="#8048F8"/>
</svg>
