<svg width="65" height="65" viewBox="0 0 65 65" fill="none" xmlns="http://www.w3.org/2000/svg">
<rect x="0.480469" y="0.0683594" width="64" height="64" rx="14" fill="#23A566" fill-opacity="0.1"/>
<path d="M37.0957 34.4924C35.9223 34.4924 34.7752 34.8123 33.7995 35.4117C32.8239 36.011 32.0634 36.8629 31.6143 37.8596C31.1653 38.8563 31.0478 39.953 31.2767 41.0111C31.5057 42.0692 32.0707 43.0411 32.9005 43.8039C33.7302 44.5668 34.7874 45.0863 35.9383 45.2967C37.0892 45.5072 38.2821 45.3992 39.3662 44.9863C40.4503 44.5735 41.3769 43.8744 42.0289 42.9774C42.6808 42.0804 43.0288 41.0258 43.0288 39.947C43.0288 39.2307 42.8753 38.5214 42.5771 37.8596C42.279 37.1978 41.8419 36.5965 41.291 36.09C40.7401 35.5835 40.086 35.1818 39.3662 34.9076C38.6464 34.6335 37.8749 34.4924 37.0957 34.4924ZM39.0734 38.7349H36.4365V39.3409H38.4142C38.589 39.3409 38.7567 39.4048 38.8803 39.5184C39.004 39.6321 39.0734 39.7862 39.0734 39.947V41.7652C39.0734 41.9259 39.004 42.0801 38.8803 42.1937C38.7567 42.3074 38.589 42.3712 38.4142 42.3712H37.755V42.9773H36.4365V42.3712H35.1181V41.1591H37.755V40.553H35.7773C35.6025 40.553 35.4348 40.4892 35.3111 40.3755C35.1875 40.2619 35.1181 40.1077 35.1181 39.947V38.1288C35.1181 37.9681 35.1875 37.8139 35.3111 37.7003C35.4348 37.5866 35.6025 37.5227 35.7773 37.5227H36.4365V36.9167H37.755V37.5227H39.0734V38.7349ZM30.5035 26.0076C29.8042 26.0076 29.1334 25.7522 28.6389 25.2975C28.1444 24.8429 27.8666 24.2263 27.8666 23.5833V22.3712H33.1404V23.5833C33.1404 24.2263 32.8626 24.8429 32.3681 25.2975C31.8736 25.7522 31.2028 26.0076 30.5035 26.0076ZM30.5035 35.7046C31.0305 35.7026 31.5457 35.8485 31.9802 36.1227C31.167 37.0426 30.665 38.1615 30.5365 39.3409H27.8666V38.1288C27.8666 37.4859 28.1444 36.8692 28.6389 36.4146C29.1334 35.96 29.8042 35.7046 30.5035 35.7046ZM30.8067 41.7652C30.9499 42.188 31.1445 42.5946 31.3869 42.9773H21.9336V41.7652H23.252V38.7349C23.2452 37.3913 23.683 36.0777 24.5071 34.9682C25.3313 33.8587 26.5029 33.0058 27.8666 32.5227V29.1894C26.5029 28.7063 25.3313 27.8535 24.5071 26.744C23.683 25.6345 23.2452 24.3208 23.252 22.9773V19.947H21.9336V18.7349H39.0734V19.947H37.755V22.9773C37.7618 24.3208 37.324 25.6345 36.4999 26.744C35.6757 27.8535 34.5041 28.7063 33.1404 29.1894V32.5227C34.0793 32.8616 34.9304 33.3778 35.6389 34.0379C34.6432 34.2419 33.7131 34.6569 32.9229 35.25C32.4078 34.8864 31.8033 34.6449 31.1627 34.547V27.1652C32.0837 27.022 32.9199 26.5839 33.5232 25.9283C34.1264 25.2728 34.4579 24.4421 34.4588 23.5833V21.7652C34.4588 21.6044 34.3894 21.4503 34.2658 21.3366C34.1421 21.223 33.9745 21.1591 33.7996 21.1591H27.2074C27.0325 21.1591 26.8649 21.223 26.7412 21.3366C26.6176 21.4503 26.5482 21.6044 26.5482 21.7652V23.5833C26.5491 24.4421 26.8806 25.2728 27.4839 25.9283C28.0871 26.5839 28.9233 27.022 29.8443 27.1652V34.547C28.9233 34.6901 28.0871 35.1282 27.4839 35.7838C26.8806 36.4394 26.5491 37.2701 26.5482 38.1288V39.947C26.5482 40.1077 26.6176 40.2619 26.7412 40.3755C26.8649 40.4892 27.0325 40.553 27.2074 40.553H30.5365C30.582 40.9644 30.6725 41.3705 30.8067 41.7652Z" fill="#23A566"/>
</svg>
