<svg width="33" height="33" viewBox="0 0 33 33" fill="none" xmlns="http://www.w3.org/2000/svg">
<g clip-path="url(#clip0_2_12022)">
<circle cx="16.3418" cy="16.9912" r="15.5" stroke="#808b93"/>
<path d="M15.8411 13.6577C15.0897 13.6577 14.369 13.9562 13.8377 14.4876C13.3063 15.0189 13.0078 15.7396 13.0078 16.491C13.0078 17.2425 13.3063 17.9632 13.8377 18.4945C14.369 19.0259 15.0897 19.3244 15.8411 19.3244C16.5926 19.3244 17.3133 19.0259 17.8446 18.4945C18.376 17.9632 18.6745 17.2425 18.6745 16.491C18.6745 15.7396 18.376 15.0189 17.8446 14.4876C17.3133 13.9562 16.5926 13.6577 15.8411 13.6577Z" fill="#808b93"/>
<path fill-rule="evenodd" clip-rule="evenodd" d="M12.4418 7.99121C11.0892 7.99121 9.79199 8.52853 8.83555 9.48497C7.87912 10.4414 7.3418 11.7386 7.3418 13.0912L7.3418 19.8912C7.3418 21.2438 7.87912 22.541 8.83555 23.4975C9.79199 24.4539 11.0892 24.9912 12.4418 24.9912H19.2418C20.5944 24.9912 21.8916 24.4539 22.848 23.4975C23.8045 22.541 24.3418 21.2438 24.3418 19.8912V13.0912C24.3418 11.7386 23.8045 10.4414 22.848 9.48497C21.8916 8.52853 20.5944 7.99121 19.2418 7.99121H12.4418ZM11.8751 16.4912C11.8751 15.4392 12.293 14.4302 13.0369 13.6864C13.7808 12.9425 14.7898 12.5245 15.8418 12.5245C16.8938 12.5245 17.9028 12.9425 18.6467 13.6864C19.3905 14.4302 19.8085 15.4392 19.8085 16.4912C19.8085 17.5432 19.3905 18.5522 18.6467 19.2961C17.9028 20.04 16.8938 20.4579 15.8418 20.4579C14.7898 20.4579 13.7808 20.04 13.0369 19.2961C12.293 18.5522 11.8751 17.5432 11.8751 16.4912ZM19.8085 12.5245H20.9418V11.3912H19.8085V12.5245Z" fill="#808b93"/>
</g>
<defs>
<clipPath id="clip0_2_12022">
<rect width="32" height="32" fill="#808b93" transform="translate(0.341797 0.991211)"/>
</clipPath>
</defs>
</svg>
