<svg width="21" height="21" viewBox="0 0 21 21" fill="none" xmlns="http://www.w3.org/2000/svg">
<path d="M9.16536 13.6024L15.0404 7.72742L13.8737 6.56075L9.16536 11.2691L6.79036 8.89408L5.6237 10.0608L9.16536 13.6024ZM4.4987 17.6024C4.04036 17.6024 3.64786 17.4394 3.3212 17.1132C2.99509 16.7866 2.83203 16.3941 2.83203 15.9358V4.26908C2.83203 3.81075 2.99509 3.41825 3.3212 3.09158C3.64786 2.76547 4.04036 2.60242 4.4987 2.60242H16.1654C16.6237 2.60242 17.0162 2.76547 17.3429 3.09158C17.669 3.41825 17.832 3.81075 17.832 4.26908V15.9358C17.832 16.3941 17.669 16.7866 17.3429 17.1132C17.0162 17.4394 16.6237 17.6024 16.1654 17.6024H4.4987Z" fill="#0389FF"/>
</svg>
