<svg width="33" height="33" viewBox="0 0 33 33" fill="none" xmlns="http://www.w3.org/2000/svg">
<g clip-path="url(#clip0_2_12029)">
<circle cx="16.3418" cy="16.9912" r="15.5" stroke="#808b93"/>
<path d="M25.3418 11.6165C24.7161 11.9009 24.0416 12.0878 23.3428 12.1772C24.0579 11.7465 24.6104 11.0639 24.8705 10.2431C24.196 10.6494 23.4484 10.9338 22.6602 11.0964C22.0182 10.3975 21.1162 9.99121 20.0923 9.99121C18.1826 9.99121 16.6224 11.5514 16.6224 13.4773C16.6224 13.7536 16.6549 14.0218 16.7118 14.2737C13.8189 14.1274 11.2428 12.7379 9.52822 10.6332C9.22755 11.1451 9.0569 11.7465 9.0569 12.3803C9.0569 13.5911 9.66637 14.6638 10.609 15.2732C10.032 15.2732 9.49572 15.1107 9.0244 14.8669V14.8913C9.0244 16.5816 10.2271 17.9955 11.8198 18.3124C11.3084 18.4524 10.7716 18.4718 10.2515 18.3693C10.4722 19.0621 10.9044 19.6682 11.4875 20.1026C12.0705 20.5369 12.775 20.7777 13.5019 20.7909C12.2697 21.7664 10.7423 22.2937 9.17067 22.2861C8.89438 22.2861 8.61809 22.2699 8.3418 22.2374C9.88577 23.2288 11.7223 23.8057 13.6888 23.8057C20.0923 23.8057 23.6109 18.4912 23.6109 13.8837C23.6109 13.7293 23.6109 13.583 23.6028 13.4286C24.2854 12.941 24.8705 12.3234 25.3418 11.6165Z" fill="#808b93"/>
</g>
<defs>
<clipPath id="clip0_2_12029">
<rect width="32" height="32" fill="#808b93" transform="translate(0.341797 0.991211)"/>
</clipPath>
</defs>
</svg>
